<svg xmlns="http://www.w3.org/2000/svg" xmlns:xlink="http://www.w3.org/1999/xlink" width="329.1" height="109.598" viewBox="0 0 329.1 109.598"><defs><filter id="a" x="100" y="0" width="45" height="44.238" filterUnits="userSpaceOnUse"><feOffset dx="2" dy="2" input="SourceAlpha"/><feGaussianBlur stdDeviation="4.5" result="b"/><feFlood flood-opacity="0.18"/><feComposite operator="in" in2="b"/><feComposite in="SourceGraphic"/></filter><filter id="c" x="0" y="0.737" width="80.45" height="108.861" filterUnits="userSpaceOnUse"><feOffset dx="2" dy="2" input="SourceAlpha"/><feGaussianBlur stdDeviation="4.5" result="d"/><feFlood flood-opacity="0.18"/><feComposite operator="in" in2="d"/><feComposite in="SourceGraphic"/></filter><filter id="e" x="125.091" y="0.737" width="80.909" height="108.5" filterUnits="userSpaceOnUse"><feOffset dx="2" dy="2" input="SourceAlpha"/><feGaussianBlur stdDeviation="4.5" result="f"/><feFlood flood-opacity="0.18"/><feComposite operator="in" in2="f"/><feComposite in="SourceGraphic"/></filter><filter id="g" x="245.299" y="4.061" width="83.801" height="105.418" filterUnits="userSpaceOnUse"><feOffset dx="2" dy="2" input="SourceAlpha"/><feGaussianBlur stdDeviation="4.5" result="h"/><feFlood flood-opacity="0.18"/><feComposite operator="in" in2="h"/><feComposite in="SourceGraphic"/></filter><filter id="i" x="184" y="4.737" width="87.49" height="104" filterUnits="userSpaceOnUse"><feOffset dx="2" dy="2" input="SourceAlpha"/><feGaussianBlur stdDeviation="4.5" result="j"/><feFlood flood-opacity="0.18"/><feComposite operator="in" in2="j"/><feComposite in="SourceGraphic"/></filter><filter id="k" x="62" y="23.737" width="61" height="85" filterUnits="userSpaceOnUse"><feOffset dx="2" dy="2" input="SourceAlpha"/><feGaussianBlur stdDeviation="4.5" result="l"/><feFlood flood-opacity="0.18"/><feComposite operator="in" in2="l"/><feComposite in="SourceGraphic"/></filter><filter id="m" x="101" y="23.737" width="43" height="85" filterUnits="userSpaceOnUse"><feOffset dx="2" dy="2" input="SourceAlpha"/><feGaussianBlur stdDeviation="4.5" result="n"/><feFlood flood-opacity="0.18"/><feComposite operator="in" in2="n"/><feComposite in="SourceGraphic"/></filter></defs><g transform="translate(-22.5 153.238)"><g transform="matrix(1, 0, 0, 1, 22.5, -153.24)" filter="url(#a)"><path d="M139-141.3c-3.7,1.4-5,3.7-5,8.3,0,6.2,2.4,8.5,9,8.5s9-2.3,9-8.5c0-3.4-.5-5.2-1.9-6.4C148.1-141.3,141.6-142.4,139-141.3Z" transform="translate(-22.5 153.24)" fill="#03217a"/></g><g transform="matrix(1, 0, 0, 1, 22.5, -153.24)" filter="url(#c)"><path d="M34-100.5V-60H50V-70.3L52.3-67C57-60,63.5-57.7,72-60c6-1.6,12.2-8,14.1-14.6,1.8-6.3,1.8-22.5,0-28.8A21.844,21.844,0,0,0,65.4-119c-4.6,0-11.4,4-13.5,8L50-107.5V-141H34Zm31.9-4.1C69.9-102.5,71-99,71-89s-1.1,13.5-5.1,15.6c-5.2,2.6-13.7.9-15.3-3.1-1.2-3.2-.7-24,.7-25.7C54.4-106.1,60.9-107.1,65.9-104.6Z" transform="translate(-22.5 153.24)" fill="#03217a"/></g><g transform="matrix(1, 0, 0, 1, 22.5, -153.24)" filter="url(#e)"><path d="M197-124.3v16.8l-1.9-3.1c-4.2-6.9-12.3-9.9-20.4-7.4-10.1,3-14.7,10.6-15.5,25.3-1.1,22.1,6.1,33.2,21.5,33.2,6.9,0,10.1-1.7,14.1-7.5l2.2-3.3V-60h16v-81H197Zm-3.1,20.9,3.1,2.6v23.6l-3.1,2.6a9.958,9.958,0,0,1-7.3,2.6c-8,0-11.6-5.2-11.6-17s3.6-17,11.6-17A9.958,9.958,0,0,1,193.9-103.4Z" transform="translate(-22.5 153.24)" fill="#03217a"/></g><g transform="matrix(1, 0, 0, 1, 22.5, -153.24)" filter="url(#g)"><path d="M302.5-137.1c-13,3.4-20.5,13.4-22.7,30.5-1.3,10.2,0,23.2,3.1,30,2.6,5.9,8.8,12.5,13.8,14.8,9.4,4.2,22.5,3.1,30.1-2.6,3.5-2.5,9.1-9.4,9.2-11.1,0-1-5.9-5.1-6.4-4.3-6.2,9.7-9.6,12.1-18.1,12.6-10.7.7-18.2-4.2-21.6-14.3-.9-2.6-1.4-8.5-1.4-16.5,0-14.6,1.6-20.8,7-26.3,4.3-4.4,9.1-6,16.5-5.5a18.7,18.7,0,0,1,14.9,8.9c1.9,3.4,2.7,3.5,6.4,1.1l2.8-1.9-3.4-4.9c-4.5-6.5-12-10.5-20.8-11A36.6,36.6,0,0,0,302.5-137.1Z" transform="translate(-22.5 153.24)" fill="#0168fa"/></g><g transform="matrix(1, 0, 0, 1, 22.5, -153.24)" filter="url(#i)"><path d="M218-136.6c0,.2,5.9,10.6,13,23.1l13,22.9V-60h8V-90l12.4-21.5c6.9-11.8,13-22.3,13.6-23.5,1-1.9.8-2-3.8-2h-4.8l-10.1,18.2c-5.5,10.1-10.4,18.3-10.8,18.3-.5,0-5.4-8.2-10.9-18.2L227.5-137h-4.7C220.1-137,218-136.8,218-136.6Z" transform="translate(-22.5 153.24)" fill="#0168fa"/></g><g transform="matrix(1, 0, 0, 1, 22.5, -153.24)" filter="url(#k)"><path d="M96-89v29h16V-78.6c0-10.2.4-19.4,1-20.4,1.3-2.4,6.2-4,12.1-4H130v-7.5c0-7.5,0-7.5-2.7-7.5-5,0-11,3.8-13.2,8.3l-2.1,4.2V-118H96Z" transform="translate(-22.5 153.24)" fill="#03217a"/></g><g transform="matrix(1, 0, 0, 1, 22.5, -153.24)" filter="url(#m)"><path d="M135-89v29h16v-58H135Z" transform="translate(-22.5 153.24)" fill="#03217a"/></g></g></svg>