<svg xmlns="http://www.w3.org/2000/svg" width="526.85" height="438" viewBox="0 0 526.85 438"><g transform="translate(-1282.776 -2140)"><path d="M615.828,523.084H301.142V165H615.828Z" transform="translate(1015.41 1975)" fill="#fff"/><path d="M615.828,523.084H301.142V165H615.828Zm-310.076-4.276H611.218V169.277H305.753Z" transform="translate(1015.41 1975)" fill="#e6e6e6"/><rect width="314.284" height="45.807" transform="translate(1317.083 2140)" fill="#6c63ff"/><circle cx="26.758" cy="26.758" r="26.758" transform="translate(1335.384 2200.212)" fill="#e6e6e6"/><rect width="91.658" height="7.87" transform="translate(1410.411 2208.083)" fill="#e6e6e6"/><rect width="201.996" height="7.87" transform="translate(1410.411 2226.97)" fill="#e6e6e6"/><rect width="201.996" height="7.87" transform="translate(1410.411 2245.858)" fill="#e6e6e6"/><circle cx="26.758" cy="26.758" r="26.758" transform="translate(1335.384 2419.235)" fill="#e6e6e6"/><rect width="91.658" height="7.87" transform="translate(1410.411 2427.104)" fill="#e6e6e6"/><rect width="201.996" height="7.87" transform="translate(1410.411 2445.993)" fill="#e6e6e6"/><rect width="201.996" height="7.87" transform="translate(1410.411 2464.881)" fill="#e6e6e6"/><rect width="39.874" height="5.771" transform="translate(1326.728 2151.704)" fill="#fff"/><rect width="39.874" height="5.771" transform="translate(1326.728 2161.673)" fill="#fff"/><rect width="39.874" height="5.771" transform="translate(1326.728 2171.642)" fill="#fff"/><path d="M639.425,456.268H257.187V354.432H639.425Z" transform="translate(1025.589 1931.132)" fill="#fff"/><path d="M639.425,456.268H257.187V354.432H639.425ZM261.8,451.657H634.814V359.043H261.8Z" transform="translate(1025.589 1931.132)" fill="#ccc"/><circle cx="26.455" cy="26.455" r="26.455" transform="translate(1303.755 2309.88)" fill="#6c63ff"/><rect width="109.45" height="7.781" transform="translate(1385.713 2314.03)" fill="#3f3d56"/><rect width="241.204" height="7.781" transform="translate(1385.713 2332.703)" fill="#3f3d56"/><rect width="241.204" height="7.781" transform="translate(1385.713 2351.377)" fill="#3f3d56"/><path d="M832.937,508.185a6.9,6.9,0,0,1,1.037-.322l11.671-30.323-4.952-6.147,8.3-8.686c2.4,3.529,14.259,10.964,10.649,16.265L841.528,511.2a6.885,6.885,0,0,1-4.144,9.986C829.3,523.607,825.07,511.166,832.937,508.185Z" transform="translate(893.226 1906.057)" fill="#a0616a"/><path d="M844.382,473.731c-2.093.6-10-11.691-11.322-12.761a8.188,8.188,0,1,1,11.22-11.928l12.162,8.513a2.967,2.967,0,0,1,.451,4.442C855.438,462.986,846.449,474.486,844.382,473.731Z" transform="translate(892.826 1909.737)" fill="#6c63ff"/><path d="M593.5,545.938h-9.421L582.675,509.6h10.83Z" transform="translate(1147.841 2021.987)" fill="#a0616a"/><path d="M847.926,730.039l-30.376,0c-.285-16.078,20.264-11.695,30.377-12.207Z" transform="translate(895.822 1847.018)" fill="#2f2e41"/><path d="M631.272,541.975l-9.358,1.085-8.64-35.578,13.812-1.6Z" transform="translate(1140.755 2022.849)" fill="#a0616a"/><path d="M889.22,725.642l-30.174,3.5c-2.136-15.938,18.781-13.953,28.767-15.627Z" transform="translate(886.247 1847.975)" fill="#2f2e41"/><path d="M845.024,661.072H829.534V602.687l-9.045-48.74-12.375-43.306,29.03-14.122,5.535,8.7c.856.78,14.726,13.614,16.222,26.331,1.525,12.962-13.2,124.45-13.832,129.19Z" transform="translate(898.006 1898.227)" fill="#2f2e41"/><path d="M806.389,506.031l-4.782-20.962c-1.122-1.079-11.736-11.959.013-25.864l6.191-16.141,18.137-5.618,7.092,5.49a22.026,22.026,0,0,1,8.506,18.876l-1.937,29.656Z" transform="translate(900.78 1911.907)" fill="#2f2e41"/><path d="M822.4,391.56c18.69,10.636,3.346,38.7-15.692,28.7C788.022,409.63,803.365,381.568,822.4,391.56Z" transform="translate(900.295 1923.023)" fill="#a0616a"/><path d="M758.3,439.56a7.494,7.494,0,0,1,.086,1.177l29.239,19.8,7.724-3.734,7.159,10.92c-4.325,1.672-15.109,12.4-19.836,7.281L753,447.918a7.483,7.483,0,0,1-9.556-6.84C742.863,431.922,757.073,430.5,758.3,439.56Z" transform="translate(912.986 1912.834)" fill="#a0616a"/><path d="M801.616,463.338c-.125-2.365,14.834-7.717,16.291-8.854a8.9,8.9,0,1,1,9.873,14.809l-12,10.786a3.224,3.224,0,0,1-4.813-.613C810.278,477.683,800.309,465.341,801.616,463.338Z" transform="translate(899.538 1908.308)" fill="#6c63ff"/><path d="M866.491,675.539l-19.223-48.152,12.807-18.409,28.152,64.906Z" transform="translate(888.938 1872.184)" fill="#2f2e41"/><path d="M903.371,734.537H776.581a.768.768,0,0,1,0-1.537H903.371a.768.768,0,0,1,0,1.537Z" transform="translate(905.486 1843.463)" fill="#ccc"/><path d="M871.147,402.072c-6.244,1.152-12.777-.753-18.127-4.171s-9.649-8.251-13.464-13.326c-2.148-2.857-4.224-5.871-7.148-7.927s-6.968-2.968-10.09-1.23c-2.753,1.533-3.966,5.556-2.351,8.074a29.752,29.752,0,0,0-13.319.167c-4.223.893-8.513,2.435-11.435,5.611s-4.027,8.337-1.558,11.877l3.663.632c6.69-1.526,9.781-.848,16.47.678-.226-1.183,1.631-1.813,2.571-1.059s.6,2.254,1.208,3.294a17.742,17.742,0,0,1,1.267,13.992c6.628-2.752,11.485-10.2,12.843-17.25a16.1,16.1,0,0,0-.711-9.222,13.1,13.1,0,0,0-2.219-3.527,17.556,17.556,0,0,1,6.713,3.718c3.412,2.968,5.88,6.842,8.608,10.449s5.913,7.1,10.1,8.8c6.427,2.6,14.061.326,19.337-4.174,4.117-3.512,7.027-8.167,9.345-13.1A17.941,17.941,0,0,1,871.147,402.072Z" transform="translate(901.67 1926.484)" fill="#2f2e41"/><path d="M910.145,399.106a14.159,14.159,0,0,0,1.832-4.208C911.406,396.31,910.8,397.718,910.145,399.106Z" transform="translate(874.378 1921.76)" fill="#2f2e41"/></g></svg>