<svg xmlns="http://www.w3.org/2000/svg" width="563.549" height="455" viewBox="0 0 563.549 455"><g transform="translate(-212.813 -1304)"><path d="M878.467,124.769H709.306a35.961,35.961,0,0,0-35.082,28.053L588.75,531.95a29.064,29.064,0,0,0,26.922,35.421l173.9,8.568a38.4,38.4,0,0,0,39.673-31.516l48.489-268.048,3.607,1.031,9.28-50.806-3.713-.928,13.534-74.822a22.141,22.141,0,0,0-21.97-26.083Z" transform="translate(-124.438 1179.234)" fill="#3f3d56"/><path d="M738.8,136.4H719.056a24.852,24.852,0,0,0-24.28,19.554L612.73,531.985a15.4,15.4,0,0,0,14.039,18.648l173.336,11.361a19.943,19.943,0,0,0,20.932-16.365l70.009-388.67A17.468,17.468,0,0,0,873.856,136.4H855.125a8.244,8.244,0,0,0-7.961,6.1h0a7.278,7.278,0,0,1-7.03,5.386H751.207A12.444,12.444,0,0,1,738.8,136.4Z" transform="translate(-131.665 1175.781)" fill="#fff"/><path d="M851.378,418.9a1.406,1.406,0,0,0,1.431-1.152l38.332-211.558a1.421,1.421,0,0,0-.293-1.147,1.379,1.379,0,0,0-1.055-.513l-174.4-2.06h-.016a1.4,1.4,0,0,0-1.353,1.1L668.839,408.257a1.421,1.421,0,0,0,.25,1.159,1.381,1.381,0,0,0,1.036.552Z" transform="translate(-148.422 1156.16)" fill="#e6e6e6"/><path d="M712.242,529.535a.7.7,0,0,0-.684.543l-1.633,7a.7.7,0,0,0,.633.861l92.26,6.557a.709.709,0,0,0,.74-.567l1.571-8.1a.7.7,0,0,0-.648-.835l-92.2-5.459Z" transform="translate(-160.627 1059.2)" fill="#e6e6e6"/><path d="M822.594,580.306a.7.7,0,0,0,.739-.533l2-8.115a.7.7,0,0,0-.633-.87l-117.823-8.24a.7.7,0,0,0-.723.5l-2.078,7.013a.7.7,0,0,0,.617.9Z" transform="translate(-158.887 1049.39)" fill="#e6e6e6"/><path d="M813.594,617.306a.7.7,0,0,0,.739-.533l2-8.115a.7.7,0,0,0-.633-.87l-117.823-8.24a.7.7,0,0,0-.723.5l-2.078,7.013a.7.7,0,0,0,.617.9Z" transform="translate(-156.214 1038.403)" fill="#e6e6e6"/><path d="M407.384,746.585c0,5.884-53.857,6.51-120.143,10.653-66.227,4.139-120.143-4.769-120.143-10.653s54.167-17.722,120.143-10.653C353.528,743.034,407.384,740.7,407.384,746.585Z" transform="translate(45.713 1000.701)" fill="#e6e6e6"/><path d="M755.913,677.978a.7.7,0,0,0,.748-.53l4.227-16.909a.7.7,0,0,0-.623-.872l-72.355-6.086a.716.716,0,0,0-.745.548l-3.606,16.228a.7.7,0,0,0,.621.853Z" transform="translate(-152.798 1022.2)" fill="#6c63ff"/><path d="M310.051,538.045a7.553,7.553,0,0,0,1.112-11.53l2.93-65.4-14.915,1.674.867,63.967a7.593,7.593,0,0,0,10.007,11.282Z" transform="translate(0.913 1093.23)" fill="#a0616a"/><path d="M69.534,561.136l8.489,1.493,8.39-32.034-11.123-2.2Z" transform="translate(268.64 1180.84)" fill="#a0616a"/><path d="M0,0H27.089V10.466H10.466A10.466,10.466,0,0,1,0,0Z" transform="translate(361.65 1754.227) rotate(-170.029)" fill="#2f2e41"/><path d="M36.391,566.968h8.619l4.1-33.246H36.39Z" transform="translate(278.482 1179.257)" fill="#a0616a"/><path d="M0,0H27.089V10.466H10.466A10.466,10.466,0,0,1,0,0H0Z" transform="translate(340.114 1754.229) rotate(179.997)" fill="#2f2e41"/><path d="M355.841,669.718a3.317,3.317,0,0,1-.4-.024l-10.145-.835a3.432,3.432,0,0,1-2.983-3.979l10.071-49.692-6.327-33.376a1.144,1.144,0,0,0-2.263.112l-9.323,84.806a3.462,3.462,0,0,1-3.663,3.119l-9.558-.356a3.437,3.437,0,0,1-3.189-3.256l.764-102.481,49.551-6.194,3.462,53.46-.014.057L359.173,667.1a3.435,3.435,0,0,1-3.332,2.622Z" transform="translate(-5.008 1064.59)" fill="#2f2e41"/><circle cx="17.267" cy="17.267" r="17.267" transform="translate(312.888 1477.439)" fill="#a0616a"/><path d="M346.916,527.769a14.139,14.139,0,0,1-7.633-2.184c-8.366-5.228-17.865-3.15-22.784-1.446a3.431,3.431,0,0,1-2.968-.338,3.382,3.382,0,0,1-1.564-2.5l-8.943-79.883A27.992,27.992,0,0,1,322.2,411.5h0q.711-.223,1.445-.422a27.819,27.819,0,0,1,23.181,4.024,28.262,28.262,0,0,1,12.069,20.636l7.53,80.419a3.38,3.38,0,0,1-1.074,2.817C362.706,521.414,355.044,527.768,346.916,527.769Z" transform="translate(-0.49 1108.378)" fill="#6c63ff"/><path d="M316.754,463.5l-20.177-2.219a4.019,4.019,0,0,1-3.448-5.016l5.136-19.577a11.163,11.163,0,1,1,22.186,2.505l.762,20.16a4.02,4.02,0,0,1-4.456,4.148Z" transform="translate(2.434 1103.428)" fill="#6c63ff"/><path d="M384.762,534.094a7.553,7.553,0,0,0-.285-11.578L379.5,457.244l-14.616,3.29,8.577,63.565a7.593,7.593,0,0,0,11.294,9.994Z" transform="translate(-18.914 1094.381)" fill="#a0616a"/><path d="M356.378,458.11a4.015,4.015,0,0,1-1.278-3.093l.763-20.16a11.163,11.163,0,0,1,22.185-2.5l5.136,19.577a4.019,4.019,0,0,1-3.448,5.016l-20.177,2.219a4.015,4.015,0,0,1-3.178-1.055Z" transform="translate(-16.007 1104.716)" fill="#6c63ff"/><path d="M332.247,384.5a3.993,3.993,0,0,1-.914-.106l-.088-.021c-15.182-2.32-18.537-11.117-19.273-14.789-.762-3.8.105-7.472,2.067-8.9-1.069-3.375-.9-6.37.511-8.9,2.461-4.415,7.79-5.906,8.507-6.091,4.259-3.142,9.355-1.045,10.282-.619,8.239-3.048,11.389-.511,11.957.056,3.683.662,5.927,2.084,6.673,4.23,1.4,4.029-3.027,9.041-3.216,9.253l-.1.11-6.595.314a4.47,4.47,0,0,0-4.2,5.144h0a20.816,20.816,0,0,0,.675,2.359c1.125,3.519,1.969,6.526.882,7.67a1.765,1.765,0,0,1-1.845.32c-1.031-.276-1.731-.218-2.08.172-.541.6-.376,2.134.465,4.306a4.035,4.035,0,0,1-.735,4.111,3.915,3.915,0,0,1-2.971,1.383Z" transform="translate(-3.119 1128.129)" fill="#2f2e41"/></g></svg>