<svg id="Capa_1" enable-background="new 0 0 512 512" height="512" viewBox="0 0 512 512" width="512" xmlns="http://www.w3.org/2000/svg"><g><g><path d="m419.434 170.889c0 78.716-124.296 224.783-156.096 260.864-3.898 4.422-10.78 4.422-14.677 0-31.8-36.081-156.096-182.148-156.096-260.864 0-90.263 73.172-163.435 163.435-163.435s163.434 73.172 163.434 163.435z" fill="#b3e59f"/></g><g><path d="m346.061 34.5c17.087 25.824 27.046 56.778 27.046 90.062 0 82.384-136.145 238.536-159.913 265.169 15.108 18.634 27.905 33.442 35.467 42.022 3.898 4.422 10.78 4.422 14.677 0 31.8-36.081 156.096-182.148 156.096-260.864 0-56.979-29.164-107.138-73.373-136.389z" fill="#95d6a4"/></g><g><circle cx="256" cy="167.954" fill="#f4fbff" r="124.621"/></g><g><path d="m380.62 167.954c0-15.021-2.659-29.422-7.53-42.757-.36 43.22-37.67 106.407-76.552 160.629 48.924-16.822 84.082-63.238 84.082-117.872z" fill="#e4f6ff"/></g><g><path d="m340.815 504.546h-169.63c-12.968 0-23.48-10.513-23.48-23.48 0-12.968 10.513-23.48 23.48-23.48h169.63c12.968 0 23.48 10.513 23.48 23.48 0 12.967-10.513 23.48-23.48 23.48z" fill="#365e7d"/></g><g><path d="m352.147 460.5c.001.098.007.195.007.293 0 12.968-10.512 23.48-23.48 23.48h-169.63c-4.11 0-7.972-1.059-11.333-2.915.158 12.832 10.604 23.187 23.473 23.187h169.63c12.968 0 23.48-10.513 23.48-23.48.001-8.857-4.905-16.566-12.147-20.565z" fill="#2b4d66"/></g><g><path d="m330.179 148.003-70.616-42.114c-2.195-1.309-4.932-1.309-7.127 0l-70.616 42.114v65.498c0 3.842 3.115 6.957 6.957 6.957h134.444c3.842 0 6.957-3.115 6.957-6.957v-65.498z" fill="#e4f6ff"/></g><path d="m330.179 196.404h-23.64c-2.761 0-5-2.239-5-5v-17.486c0-2.761 2.239-5 5-5h23.64z" fill="#bed8fb"/><path d="m205.461 196.404h-23.64v-27.486h23.64c2.761 0 5 2.239 5 5v17.486c0 2.761-2.239 5-5 5z" fill="#bed8fb"/><g><path d="m270.029 168.918h-28.059c-2.209 0-4 1.791-4 4v47.54h36.059v-47.54c0-2.209-1.791-4-4-4z" fill="#2b4d66"/></g><g><path d="m256 442.524c4.945 0 9.658-2.129 12.931-5.843 37.055-42.044 157.958-185.468 157.958-265.793 0-94.228-76.661-170.888-170.889-170.888-23.087 0-45.487 4.527-66.574 13.455-3.791 1.604-5.563 5.979-3.958 9.77 1.605 3.793 5.983 5.563 9.77 3.958 19.24-8.145 39.683-12.275 60.763-12.275 86.009 0 155.981 69.972 155.981 155.98 0 77.035-128.479 226.713-154.235 255.936-.607.689-1.354.792-1.746.792s-1.139-.103-1.746-.792c-25.757-29.222-154.235-178.9-154.235-255.936 0-51.013 25.027-98.899 66.948-128.093 3.379-2.353 4.209-6.998 1.857-10.377s-6.999-4.21-10.377-1.857c-45.922 31.981-73.337 84.439-73.337 140.327 0 80.327 120.902 223.75 157.957 265.793 3.273 3.714 7.986 5.843 12.932 5.843z"/><path d="m337.669 271.759c32.033-25.235 50.405-63.071 50.405-103.805 0-72.826-59.248-132.074-132.074-132.074s-132.075 59.248-132.075 132.074c0 72.827 59.248 132.076 132.074 132.076 18.449 0 36.303-3.733 53.066-11.095 3.77-1.656 5.483-6.053 3.828-9.822-1.656-3.77-6.055-5.483-9.822-3.828-14.862 6.527-30.699 9.837-47.072 9.837-64.606 0-117.166-52.561-117.166-117.167s52.56-117.166 117.166-117.166 117.166 52.56 117.166 117.166c0 36.137-16.301 69.704-44.724 92.094-3.233 2.548-3.79 7.235-1.242 10.469 2.549 3.231 7.234 3.787 10.47 1.241z"/><path d="m340.814 450.131h-169.629c-17.057 0-30.935 13.877-30.935 30.935s13.878 30.934 30.935 30.934h23.139c4.117 0 7.454-3.337 7.454-7.454s-3.337-7.454-7.454-7.454h-23.139c-8.837 0-16.026-7.189-16.026-16.026s7.189-16.026 16.026-16.026h169.629c8.837 0 16.026 7.189 16.026 16.026s-7.189 16.026-16.026 16.026h-111.21c-4.117 0-7.454 3.337-7.454 7.454s3.337 7.454 7.454 7.454h111.21c17.057 0 30.935-13.877 30.935-30.935s-13.878-30.934-30.935-30.934z"/><path d="m188.778 227.912h134.444c7.946 0 14.411-6.465 14.411-14.411l.047-52.083h-.047v-.233l1.636.976c3.476 2.089 8.099.984 10.22-2.584 2.109-3.536.952-8.111-2.584-10.22l-83.524-49.871c-4.554-2.716-10.212-2.716-14.764 0l-83.525 49.871c-3.536 2.109-4.693 6.685-2.584 10.22 2.108 3.536 6.682 4.692 10.22 2.584l1.636-.976v.233h-.046l.046 52.083c.002 7.946 6.468 14.411 14.414 14.411zm77.797-14.908h-21.151v-36.632h21.151zm-77.3-60.711 66.725-39.794 66.725 39.795v9.125h-16.186c-6.893 0-12.5 5.607-12.5 12.5v17.486c0 6.893 5.607 12.5 12.5 12.5h16.186v9.1h-41.241v-40.111c0-6.302-5.127-11.43-11.43-11.43h-28.108c-6.302 0-11.43 5.128-11.43 11.43v40.111h-41.241v-9.1h16.186c6.893 0 12.5-5.607 12.5-12.5v-17.486c0-6.893-5.607-12.5-12.5-12.5h-16.186zm133.404 24.125v12.486h-13.641v-12.486zm-133.358 12.486v-12.486h13.64v12.486z"/></g></g></svg>