<svg id="Capa_1" enable-background="new 0 0 512 512" height="512" viewBox="0 0 512 512" width="512" xmlns="http://www.w3.org/2000/svg"><g><g><g><path d="m511.551 271-10.977-16.564 10.977-13.436c-1.358-23.504-5.876-46.159-13.156-67.541l-40.246-12.672-19.129-83.754c-46.478-47.523-111.299-77.033-183.02-77.033-71.71 0-136.53 29.49-183.01 76.99l-19.139 83.797-40.217 12.663c-7.288 21.395-11.844 44.053-13.202 67.573l.017-.023 10.253 15-10.253 15h-.005c1.366 23.532 5.915 46.21 13.213 67.616l73.176 104.934 114.167 62.507-.029.004c4.961 1.087 9.98 2.014 15.044 2.81l39.985-30.637 39.976 30.63c5.057-.796 10.071-1.723 15.026-2.808l114.165-62.506 73.227-105.006c7.28-21.383 11.805-44.04 13.164-67.545h-.007z" fill="#6eba3b"/></g></g><g><g><path d="m0 256c0 5.037.162 10.035.449 15h511.102c.287-4.965.449-9.963.449-15s-.162-10.035-.449-15h-511.102c-.287 4.965-.449 9.963-.449 15z" fill="#ddd"/></g></g><g><g><path d="m26.017 368.541h459.967c4.743-9.674 8.902-19.687 12.413-30h-484.793c3.511 10.313 7.67 20.325 12.413 30z" fill="#ddd"/></g></g><g><g><path d="m121.032 473.55h269.937c14.05-8.735 27.19-18.792 39.25-30h-348.438c12.06 11.208 25.2 21.265 39.251 30z" fill="#ddd"/></g></g><g><g><path d="m13.604 173.459h484.792c-3.511-10.313-7.67-20.326-12.413-30h-459.966c-4.743 9.675-8.902 19.687-12.413 30z" fill="#ddd"/></g></g><g><g><path d="m263.071 17.071c-3.905-3.905-10.237-3.905-14.142 0l-27.071 27.071c-3.751 3.751-5.858 8.838-5.858 14.142v450.598c13.034 2.045 26.391 3.118 40 3.118s26.966-1.072 40-3.118v-450.598c0-5.304-2.107-10.391-5.858-14.142z" fill="#fff"/></g></g><g><g><path d="m256 317.309c11.487 0 20.833-9.346 20.833-20.833v-100.029c0-4.143-3.357-7.5-7.5-7.5s-7.5 3.357-7.5 7.5v100.028c0 3.217-2.616 5.833-5.833 5.833s-5.833-2.616-5.833-5.833v-280.442c-.432.311-.85.65-1.238 1.038l-13.762 13.762v265.643c0 11.487 9.346 20.833 20.833 20.833z" fill="#efefef"/></g></g><g><g><path d="m282.667 61.543c-11.488 0-20.834 9.346-20.834 20.833v84.071c0 4.143 3.357 7.5 7.5 7.5s7.5-3.357 7.5-7.5v-84.071c0-3.217 2.617-5.833 5.834-5.833h13.333v-15z" fill="#efefef"/></g></g><g><g><path d="m229.333 458.245c11.488 0 20.834-9.346 20.834-20.834v-97.603c0-4.143-3.357-7.5-7.5-7.5s-7.5 3.357-7.5 7.5v97.603c0 3.217-2.617 5.834-5.834 5.834h-13.333v15z" fill="#efefef"/></g></g><g><g><path d="m269.333 332.309c-4.143 0-7.5 3.357-7.5 7.5v172.118c5.038-.113 10.038-.374 15-.774v-171.344c0-4.143-3.357-7.5-7.5-7.5z" fill="#efefef"/></g></g><g><g><path d="m168.071 47.071c-3.905-3.905-10.237-3.905-14.142 0l-27.071 27.071c-3.751 3.751-5.858 8.838-5.858 14.142v385.246c24.258 15.087 51.222 26.226 80 32.527v-417.773c0-5.304-2.107-10.391-5.858-14.142z" fill="#fff"/></g></g><g><g><path d="m161 347.309c11.487 0 20.833-9.346 20.833-20.833v-100.029c0-4.143-3.357-7.5-7.5-7.5s-7.5 3.357-7.5 7.5v100.028c0 3.217-2.616 5.833-5.833 5.833s-5.833-2.616-5.833-5.833v-280.442c-.432.311-.85.65-1.238 1.038l-13.762 13.762v265.643c0 11.487 9.346 20.833 20.833 20.833z" fill="#efefef"/></g></g><g><g><path d="m187.667 91.543c-11.488 0-20.834 9.346-20.834 20.833v84.071c0 4.143 3.357 7.5 7.5 7.5s7.5-3.357 7.5-7.5v-84.071c0-3.217 2.617-5.833 5.834-5.833h13.333v-15z" fill="#efefef"/></g></g><g><g><path d="m147.667 362.309c-4.143 0-7.5 3.357-7.5 7.5v97.603c0 3.217-2.617 5.834-5.834 5.834h-13.333v.285c7.294 4.536 14.83 8.719 22.59 12.518 6.85-3.416 11.577-10.476 11.577-18.637v-97.603c0-4.143-3.357-7.5-7.5-7.5z" fill="#efefef"/></g></g><g><g><path d="m174.333 362.309c-4.143 0-7.5 3.357-7.5 7.5v126.222c4.93 1.832 9.932 3.511 15 5.043v-131.265c0-4.143-3.357-7.5-7.5-7.5z" fill="#efefef"/></g></g><g><g><path d="m106 118.28v345.19c-33.85-24.51-61.46-57.11-80-94.95v-250.24c0-5.3 2.11-10.39 5.86-14.14l27.07-27.07c3.87-3.87 10.15-3.9 14.06-.08l.08.08 27.07 27.07c3.75 3.75 5.86 8.84 5.86 14.14z" fill="#fff"/></g></g><g><g><path d="m66 377.309c11.487 0 20.833-9.346 20.833-20.833v-100.029c0-4.143-3.357-7.5-7.5-7.5s-7.5 3.357-7.5 7.5v100.028c0 3.217-2.616 5.833-5.833 5.833s-5.833-2.616-5.833-5.833v-280.442c-.432.311-.85.65-1.238 1.038l-13.762 13.762v265.643c0 11.487 9.346 20.833 20.833 20.833z" fill="#efefef"/></g></g><g><g><path d="m92.667 121.543c-11.488 0-20.834 9.346-20.834 20.833v84.071c0 4.143 3.357 7.5 7.5 7.5s7.5-3.357 7.5-7.5v-84.071c0-3.217 2.617-5.833 5.834-5.833h13.333v-15z" fill="#efefef"/></g></g><g><g><path d="m79.333 392.309c-4.143 0-7.5 3.357-7.5 7.5v33.987c4.804 4.975 9.809 9.754 15 14.328v-48.315c0-4.143-3.357-7.5-7.5-7.5z" fill="#efefef"/></g></g><g><g><path d="m358.071 47.071c-3.905-3.905-10.237-3.905-14.142 0l-27.071 27.071c-3.751 3.751-5.858 8.838-5.858 14.142v417.773c28.778-6.301 55.742-17.44 80-32.527v-385.246c0-5.304-2.107-10.391-5.858-14.142z" fill="#fff"/></g></g><g><g><path d="m351 347.309c11.487 0 20.833-9.346 20.833-20.833v-100.029c0-4.143-3.357-7.5-7.5-7.5s-7.5 3.357-7.5 7.5v100.028c0 3.217-2.616 5.833-5.833 5.833s-5.833-2.616-5.833-5.833v-280.442c-.432.311-.85.65-1.238 1.038l-13.762 13.762v265.643c0 11.487 9.346 20.833 20.833 20.833z" fill="#efefef"/></g></g><g><g><path d="m377.667 91.543c-11.488 0-20.834 9.346-20.834 20.833v84.071c0 4.143 3.357 7.5 7.5 7.5s7.5-3.357 7.5-7.5v-84.071c0-3.217 2.617-5.833 5.834-5.833h13.333v-15z" fill="#efefef"/></g></g><g><g><path d="m324.333 488.245c11.488 0 20.834-9.346 20.834-20.834v-97.603c0-4.143-3.357-7.5-7.5-7.5s-7.5 3.357-7.5 7.5v97.603c0 3.217-2.617 5.834-5.834 5.834h-13.333v15z" fill="#efefef"/></g></g><g><g><path d="m364.333 362.309c-4.143 0-7.5 3.357-7.5 7.5v121.555c5.086-2.182 10.09-4.52 15-7.016v-114.539c0-4.143-3.357-7.5-7.5-7.5z" fill="#efefef"/></g></g><g><g><path d="m486 118.28v250.24c-18.54 37.84-46.15 70.44-80 94.95v-345.19c0-5.3 2.11-10.39 5.86-14.14l27.07-27.07c.03-.03.05-.05.08-.08 3.91-3.82 10.19-3.79 14.06.08l27.07 27.07c3.75 3.75 5.86 8.84 5.86 14.14z" fill="#fff"/></g></g><g><g><path d="m446 377.309c11.487 0 20.833-9.346 20.833-20.833v-100.029c0-4.143-3.357-7.5-7.5-7.5s-7.5 3.357-7.5 7.5v100.028c0 3.217-2.616 5.833-5.833 5.833s-5.833-2.616-5.833-5.833v-280.442c-.432.311-.85.65-1.238 1.038l-13.762 13.762v265.643c0 11.487 9.346 20.833 20.833 20.833z" fill="#efefef"/></g></g><g><g><path d="m472.667 121.543c-11.488 0-20.834 9.346-20.834 20.833v84.071c0 4.143 3.357 7.5 7.5 7.5s7.5-3.357 7.5-7.5v-84.071c0-3.217 2.617-5.833 5.834-5.833h13.333v-15z" fill="#efefef"/></g></g><g><g><path d="m440.167 433.796v-33.987c0-4.143-3.357-7.5-7.5-7.5s-7.5 3.357-7.5 7.5v48.315c5.191-4.574 10.196-9.353 15-14.328z" fill="#efefef"/></g></g></g></svg>