<svg height="512" viewBox="0 0 512 512" width="512" xmlns="http://www.w3.org/2000/svg"><rect fill="#a5c3dc" height="432" rx="32" width="320" x="120" y="64"/><path d="m360 16h-256a32 32 0 0 0 -32 32v368a32 32 0 0 0 32 32h208l80-72v-328a32 32 0 0 0 -32-32z" fill="#d7e6f0"/><path d="m312 448v-40a32 32 0 0 1 32-32h48z" fill="#fff"/><g fill="#f04b37"><path d="m214.667 184a8 8 0 0 0 8-8v-63.333a32.667 32.667 0 0 0 -65.334 0v63.333a8 8 0 0 0 16 0v-40h33.334v40a8 8 0 0 0 8 8zm-41.334-64v-7.333a16.667 16.667 0 0 1 33.334 0v7.333z"/><path d="m277.333 64h-16v-16a8 8 0 0 0 -16 0v16h-16a8 8 0 1 0 0 16h16v16a8 8 0 0 0 16 0v-16h16a8 8 0 0 0 0-16z"/><path d="m269.333 128a8 8 0 0 0 -8 8 72 72 0 1 1 -72-72 8 8 0 0 0 0-16 88 88 0 1 0 88 88 8 8 0 0 0 -8-8z"/></g><rect fill="#a5c3dc" height="32" rx="16" width="224" x="120" y="272"/><rect fill="#a5c3dc" height="32" rx="16" width="144" x="120" y="336"/></svg>