<svg id="Capa_1" enable-background="new 0 0 512 512" height="512" viewBox="0 0 512 512" width="512" xmlns="http://www.w3.org/2000/svg"><g><path d="m512 256c0 66.138-25.081 126.418-66.25 171.848-1.726 1.905-5.098-2.105-6.88-.253-6.099 6.338-12.521 12.362-19.24 18.046-2.782 2.353-3.998 10.537-6.88 12.772-43.312 33.591-97.696 53.587-156.75 53.587s-113.438-19.996-156.75-53.586c-1.83-1.419-1.216-7.579-3.006-9.046-8.346-6.842-16.253-14.2-23.67-22.027-1.315-1.388-5.04 1.925-6.325.508-41.168-45.431-66.249-105.711-66.249-171.849 0-141.385 114.615-256 256-256s256 114.615 256 256z" fill="#51489a"/><path d="m468.723 228.17c0 117.484-95.24 212.723-212.723 212.723s-212.723-95.239-212.723-212.723 95.239-212.723 212.723-212.723 212.723 95.239 212.723 212.723z" fill="#6a61b4"/><path d="m220 155v90c0 2.761-2.239 5-5 5h-20c-2.761 0-5-2.239-5-5v-90c0-2.761 2.239-5 5-5h20c2.761 0 5 2.239 5 5z" fill="#07a9f0"/><path d="m220 163.319v50h-30v-50z" fill="#72d1fb"/><path d="m197 135v110c0 2.761-2.239 5-5 5h-20c-2.761 0-5-2.239-5-5v-110c0-2.761 2.239-5 5-5h20c2.761 0 5 2.239 5 5z" fill="#f77026"/><path d="m197 220h-30v-65h30z" fill="#ff9100"/><path d="m380 305v90c0 2.761-2.239 5-5 5h-20c-2.761 0-5-2.239-5-5v-90c0-2.761 2.239-5 5-5h20c2.761 0 5 2.239 5 5z" fill="#07a9f0"/><path d="m330 305v90c0 2.761-2.239 5-5 5h-20c-2.761 0-5-2.239-5-5v-90c0-2.761 2.239-5 5-5h20c2.761 0 5 2.239 5 5z" fill="#453d83"/><path d="m145 360h90c2.761 0 5 2.239 5 5v20c0 2.761-2.239 5-5 5h-90c-2.761 0-5-2.239-5-5v-20c0-2.761 2.239-5 5-5z" fill="#ea552d"/><path d="m215 360v30h-48v-30z" fill="#f77026"/><path d="m165 331.02h90c2.761 0 5 2.239 5 5v20c0 2.761-2.239 5-5 5h-90c-2.761 0-5-2.239-5-5v-20c0-2.761 2.239-5 5-5z" fill="#72d1fb"/><path d="m239 351h-60c-2.761 0-5-2.239-5-5 0-2.761 2.239-5 5-5h60c2.761 0 5 2.239 5 5 0 2.761-2.239 5-5 5z" fill="#07a9f0"/><path d="m357 285v110c0 2.761-2.239 5-5 5h-20c-2.761 0-5-2.239-5-5v-110c0-2.761 2.239-5 5-5h20c2.761 0 5 2.239 5 5z" fill="#ea552d"/><path d="m347 300h-10c-2.761 0-5-2.239-5-5 0-2.761 2.239-5 5-5h10c2.761 0 5 2.239 5 5 0 2.761-2.239 5-5 5zm5 75c0-2.761-2.239-5-5-5h-10c-2.761 0-5 2.239-5 5 0 2.761 2.239 5 5 5h10c2.761 0 5-2.239 5-5zm0-40c0-2.761-2.239-5-5-5h-10c-2.761 0-5 2.239-5 5 0 2.761 2.239 5 5 5h10c2.761 0 5-2.239 5-5z" fill="#bc4e11"/><path d="m170.108 159.398-23.234 86.949c-.713 2.668-3.453 4.253-6.121 3.54l-19.322-5.163c-2.668-.713-4.253-3.453-3.54-6.121l23.234-86.949c.713-2.668 3.453-4.253 6.121-3.54l19.322 5.163c2.669.712 4.253 3.453 3.54 6.121z" fill="#72d1fb"/><path d="m137.353 165.772 28.983 7.745-7.745 28.983-28.983-7.745z" fill="#07a9f0"/><path d="m445.75 310v117.848c-10.08 11.123-21.124 21.355-33 30.566v-48.414h-37.75c-5.523 0-10-4.477-10-10s4.477-10 10-10h37.75v-80c0-5.523 4.477-10 10-10h13c5.523 0 10 4.477 10 10zm-257.005 80h-89.495v-80c0-5.523-4.477-10-10-10h-13c-5.523 0-10 4.477-10 10v117.848c10.08 11.123 21.124 21.355 33 30.566v-48.414h89.495c5.523 0 10-4.477 10-10s-4.477-10-10-10zm181.255-280h63.681v-20h-63.681c-5.523 0-10 4.477-10 10s4.477 10 10 10zm-181.255 130h-108.745v20h108.745c5.523 0 10-4.477 10-10s-4.477-10-10-10zm244.936 20v-20h-63.681c-5.523 0-10 4.477-10 10s4.477 10 10 10zm-244.936-170h-108.745v20h108.745c5.523 0 10-4.477 10-10s-4.477-10-10-10z" fill="#ff9100"/><path d="m394.319 250c0 5.523-4.477 10-10 10h-203.976c-5.326 0-9.977-4.02-10.321-9.334-.377-5.825 4.235-10.666 9.978-10.666h204.319c5.523 0 10 4.477 10 10zm-10 140h-204.319c-5.743 0-10.355 4.841-9.979 10.666.344 5.315 4.995 9.334 10.321 9.334h203.977c5.523 0 10-4.477 10-10s-4.477-10-10-10zm0-300h-204.319c-5.743 0-10.355 4.841-9.979 10.666.344 5.315 4.995 9.334 10.321 9.334h203.977c5.523 0 10-4.477 10-10s-4.477-10-10-10zm-295.069-90h-13c-5.523 0-10 4.477-10 10v320c0 5.523 4.477 10 10 10h13c5.523 0 10-4.477 10-10v-320c0-5.523-4.477-10-10-10zm346.5 0h-13c-5.523 0-10 4.477-10 10v320c0 5.523 4.477 10 10 10h13c5.523 0 10-4.477 10-10v-320c0-5.523-4.477-10-10-10z" fill="#ffb52d"/><path d="m370 240h-85c-8.284 0-15-6.716-15-15 0-8.284 6.716-15 15-15h85" fill="#fff"/><path d="m370 245h-85c-11.028 0-20-8.972-20-20s8.972-20 20-20h85c2.762 0 5 2.238 5 5s-2.238 5-5 5h-85c-5.514 0-10 4.486-10 10s4.486 10 10 10h85c2.762 0 5 2.238 5 5s-2.238 5-5 5z" fill="#ea552d"/><path d="m165 297.02h85c8.284 0 15 6.716 15 15 0 8.284-6.716 15-15 15h-85" fill="#fff"/><path d="m165 292.02h85c11.028 0 20 8.972 20 20s-8.972 20-20 20h-85c-2.762 0-5-2.238-5-5s2.238-5 5-5h85c5.514 0 10-4.486 10-10s-4.486-10-10-10h-85c-2.762 0-5-2.238-5-5s2.238-5 5-5z" fill="#ffb52d"/><path d="m275 90h-85c-8.284 0-15-6.716-15-15 0-8.284 6.716-15 15-15h85" fill="#fff"/><path d="m275 95h-85c-11.028 0-20-8.972-20-20s8.972-20 20-20h85c2.762 0 5 2.238 5 5s-2.238 5-5 5h-85c-5.514 0-10 4.486-10 10s4.486 10 10 10h85c2.762 0 5 2.238 5 5s-2.238 5-5 5z" fill="#453d83"/><path d="m160 22h85c8.284 0 15 6.716 15 15 0 8.284-6.716 15-15 15h-85" fill="#fff"/><path d="m155 52c0-2.762 2.238-5 5-5h85c5.514 0 10-4.486 10-10s-4.486-10-10-10h-85c-2.762 0-5-2.238-5-5s2.238-5 5-5h85c11.028 0 20 8.972 20 20s-8.972 20-20 20h-85c-2.762 0-5-2.238-5-5z" fill="#f77026"/></g></svg>