<svg id="Capa_1" enable-background="new 0 0 504.5 504.5" height="512" viewBox="0 0 504.5 504.5" width="512" xmlns="http://www.w3.org/2000/svg"><g><g><path d="m301.95 383.533v112.683c0 4.575-3.709 8.283-8.283 8.283h-49.7c-4.575 0-8.283-3.709-8.283-8.283v-112.683z" fill="#e3dcda"/><path d="m278.95 383.533v112.683c0 4.575-3.709 8.283-8.283 8.283h23c4.575 0 8.283-3.709 8.283-8.283v-112.683z" fill="#dbceca"/><path d="m351.65 350.4v29.85c0 4.575-3.709 8.283-8.283 8.283h-149.1c-4.575 0-8.283-3.708-8.283-8.283v-29.85z" fill="#ffd900"/></g><path d="m328.65 350.4v29.85c0 4.575-3.709 8.283-8.283 8.283h23c4.575 0 8.283-3.708 8.283-8.283v-29.85z" fill="#ffc200"/><g><g><path d="m119.717 355.4h356.183c4.575 0 8.283-3.709 8.283-8.283v-157.384c0-54.897-44.503-99.4-99.4-99.4h-265.066z" fill="#0068ae"/><path d="m384.783 90.333h-23c54.897 0 99.4 44.503 99.4 99.4v157.383c0 4.575-3.709 8.283-8.283 8.283h23c4.575 0 8.283-3.709 8.283-8.283v-157.383c0-54.897-44.503-99.4-99.4-99.4z" fill="#004a84"/><path d="m219.117 189.733c0-55.148-44.911-99.807-100.154-99.397-54.807.406-98.646 45.836-98.646 100.645v156.135c0 4.575 3.708 8.283 8.283 8.283h182.233c4.575 0 8.283-3.709 8.283-8.283v-157.383z" fill="#004a84"/><path d="m118.963 90.336c-3.62.027-7.19.256-10.704.665 49.459 5.72 87.858 47.74 87.858 98.732v157.383c0 4.575-3.709 8.283-8.283 8.283h23c4.575 0 8.283-3.709 8.283-8.283v-157.383c0-55.148-44.911-99.806-100.154-99.397z" fill="#003165"/></g></g><g><ellipse cx="285.383" cy="189.733" fill="#ffd900" rx="33.133" ry="33.133" transform="matrix(.189 -.982 .982 .189 45.135 434.117)"/><g><g><path d="m285.384 197.233c-4.143 0-7.5-3.357-7.5-7.5v-182.233c0-4.143 3.357-7.5 7.5-7.5s7.5 3.357 7.5 7.5v182.233c0 4.143-3.358 7.5-7.5 7.5z" fill="#f3edea"/></g><path d="m293.383 57.2h66.833c4.418 0 8-3.582 8-8v-33.7c0-4.418-3.582-8-8-8h-66.833c-4.418 0-8 3.582-8 8v33.7c0 4.418 3.582 8 8 8z" fill="#7fe881"/><path d="m360.217 7.5h-23c4.418 0 8 3.582 8 8v33.7c0 4.418-3.582 8-8 8h23c4.418 0 8-3.582 8-8v-33.7c0-4.418-3.582-8-8-8z" fill="#5bc980"/></g></g><path d="m443.05 322.267h-116.533c-4.418 0-8-3.582-8-8v-41.983c0-4.418 3.582-8 8-8h116.533c4.418 0 8 3.582 8 8v41.983c0 4.418-3.582 8-8 8z" fill="#f3edea"/><g><g><path d="m351.65 304.917c-4.143 0-7.5-3.357-7.5-7.5v-8.283c0-4.143 3.357-7.5 7.5-7.5s7.5 3.357 7.5 7.5v8.283c0 4.143-3.357 7.5-7.5 7.5z" fill="#ffd900"/></g></g><g><g><path d="m384.783 304.917c-4.143 0-7.5-3.357-7.5-7.5v-8.283c0-4.143 3.357-7.5 7.5-7.5s7.5 3.357 7.5 7.5v8.283c0 4.143-3.357 7.5-7.5 7.5z" fill="#ffd900"/></g></g><g><g><path d="m417.917 304.917c-4.143 0-7.5-3.357-7.5-7.5v-8.283c0-4.143 3.357-7.5 7.5-7.5s7.5 3.357 7.5 7.5v8.283c0 4.143-3.357 7.5-7.5 7.5z" fill="#ffd900"/></g></g><path d="m152.85 222.867c9.149 0 16.567-7.417 16.567-16.567s-7.417-16.567-16.567-16.567h-66.267c-9.149 0-16.567 7.417-16.567 16.567 0 9.149 7.417 16.567 16.567 16.567z" fill="#003165"/><g><g><path d="m136.283 263.5h-33.133c-4.142 0-7.5-3.357-7.5-7.5s3.358-7.5 7.5-7.5h33.133c4.142 0 7.5 3.357 7.5 7.5s-3.358 7.5-7.5 7.5z" fill="#ffd900"/></g></g><path d="m443.05 264.283h-22.9c4.418 0 8 3.582 8 8v41.983c0 4.416-3.578 7.996-7.993 8h22.893c4.418 0 8-3.582 8-8v-41.983c0-4.418-3.582-8-8-8z" fill="#e3dcda"/></g></svg>