<?xml version="1.0" encoding="iso-8859-1"?>
<!-- Generator: Adobe Illustrator 19.0.0, SVG Export Plug-In . SVG Version: 6.00 Build 0)  -->
<svg version="1.1" id="Capa_1" xmlns="http://www.w3.org/2000/svg" xmlns:xlink="http://www.w3.org/1999/xlink" x="0px" y="0px"
	 viewBox="0 0 512 512" style="enable-background:new 0 0 512 512;" xml:space="preserve">
<circle style="fill:#69CDFF;" cx="256" cy="267" r="245"/>
<g>
	<path style="fill:#EEF6FF;" d="M380,60h7.095c-2.335-1.482-4.707-2.912-7.095-4.316V60z"/>
	<path style="fill:#EEF6FF;" d="M293,42.24h-33.367c-5.426,0-9.867,3.996-9.867,8.881S254.207,60,259.633,60H293V42.24z"/>
	<path style="fill:#EEF6FF;" d="M307,60h59V48.059c-8.67-4.364-17.623-8.247-26.845-11.574c-1.413,3.352-5.016,5.756-9.22,5.756H307
		V60z"/>
	<path style="fill:#EEF6FF;" d="M133.25,128.24h-11.129c-5.428,0-9.867-3.996-9.867-8.879c0-4.885,4.439-8.88,9.867-8.88h11.129
		v-17.76H83.822C67.881,108.471,54.09,126.388,42.929,146h90.321V128.24z"/>
	<rect x="147.25" y="92.72" style="fill:#EEF6FF;" width="59" height="17.761"/>
	<path style="fill:#EEF6FF;" d="M234.368,92.721H220.25v17.761h14.118c5.427,0,9.866-3.997,9.866-8.881
		C244.234,96.717,239.795,92.721,234.368,92.721z"/>
	<path style="fill:#EEF6FF;" d="M147.25,128.273v17.695c5.102-0.328,9.164-4.175,9.164-8.847
		C156.414,132.449,152.352,128.601,147.25,128.273z"/>
	<path style="fill:#EEF6FF;" d="M453.805,138.761h10.979c-3.756-6.102-7.768-12.028-12.027-17.761h-3.523L453.805,138.761z"/>
	<path style="fill:#EEF6FF;" d="M433.594,156.52h-14.303c-5.428,0-9.867-3.996-9.867-8.879c0-4.885,4.44-8.88,9.867-8.88h9.731
		L424.449,121H380v53.279h58.166L433.594,156.52z"/>
	<path style="fill:#EEF6FF;" d="M320.14,138.761h22.2c5.426,0,9.866,3.995,9.866,8.88c0,4.883-4.44,8.879-9.866,8.879H307v17.76h59
		V121h-45.86c-5.427,0-9.866,3.996-9.866,8.88C310.273,134.764,314.713,138.761,320.14,138.761z"/>
	<path style="fill:#EEF6FF;" d="M293,156.52h-20.963c-5.426,0-9.867,3.996-9.867,8.881s4.441,8.879,9.867,8.879H293V156.52z"/>
</g>
<g>
	<path style="fill:#183889;" d="M125.275,24.5c0.266,8.051,6.859,14.5,14.975,14.5s14.709-6.449,14.975-14.5H125.275z"/>
	<path style="fill:#183889;" d="M198.275,24.5c0.266,8.051,6.859,14.5,14.975,14.5s14.709-6.449,14.975-14.5H198.275z"/>
</g>
<rect x="147.25" y="247.06" style="fill:#FFD3B6;" width="59" height="20.871"/>
<path style="fill:#FFBB88;" d="M165,247.064h-17.75v20.871H165c-2.75,0-5-2.25-5-5v-10.871C160,249.314,162.25,247.064,165,247.064z
	"/>
<rect x="307" y="247.06" style="fill:#FFD3B6;" width="59" height="20.871"/>
<path style="fill:#FFBB88;" d="M323,247.064h-16v20.871h16c-2.75,0-5-2.25-5-5v-10.871C318,249.314,320.25,247.064,323,247.064z"/>
<path style="fill:#6FE27F;" d="M28.47,358C64.598,448.248,152.849,512,256,512s191.402-63.752,227.53-154H28.47z"/>
<g>
	<rect x="132.75" y="24.5" style="fill:#F4B46E;" width="15" height="275"/>
	<rect x="205.75" y="24.5" style="fill:#F4B46E;" width="15" height="275"/>
</g>
<g>
	<path style="fill:#183889;" d="M285.025,24.5C285.291,32.551,291.885,39,300,39s14.709-6.449,14.975-14.5H285.025z"/>
	<path style="fill:#183889;" d="M358.025,24.5C358.291,32.551,364.885,39,373,39s14.709-6.449,14.975-14.5H358.025z"/>
</g>
<path style="fill:#E52E49;" d="M235.5,327c0,2.75-2.25,5-5,5h-107c-2.75,0-5-2.25-5-5v-23c0-2.75,2.25-5,5-5h107c2.75,0,5,2.25,5,5
	V327z"/>
<path style="fill:#B7092B;" d="M139,327v-23c0-2.75,2.25-5,5-5h-20.5c-2.75,0-5,2.25-5,5v23c0,2.75,2.25,5,5,5H144
	C141.25,332,139,329.75,139,327z"/>
<g>
	<rect x="292.5" y="24.5" style="fill:#F4B46E;" width="15" height="275"/>
	<rect x="365.5" y="24.5" style="fill:#F4B46E;" width="15" height="275"/>
</g>
<path style="fill:#E52E49;" d="M395,327c0,2.75-2.25,5-5,5H283c-2.75,0-5-2.25-5-5v-23c0-2.75,2.25-5,5-5h107c2.75,0,5,2.25,5,5V327
	z"/>
<path style="fill:#B7092B;" d="M298,327v-23c0-2.75,2.25-5,5-5h-20c-2.75,0-5,2.25-5,5v23c0,2.75,2.25,5,5,5h20
	C300.25,332,298,329.75,298,327z"/>
<g>
	<path style="fill:#4CCC76;" d="M429.5,394h-15c-4.143,0-7.5-3.357-7.5-7.5s3.357-7.5,7.5-7.5h15c4.143,0,7.5,3.357,7.5,7.5
		S433.643,394,429.5,394z"/>
	<path style="fill:#4CCC76;" d="M369.5,450h-15c-4.143,0-7.5-3.357-7.5-7.5s3.357-7.5,7.5-7.5h15c4.143,0,7.5,3.357,7.5,7.5
		S373.643,450,369.5,450z"/>
	<path style="fill:#4CCC76;" d="M141.5,441h-15c-4.143,0-7.5-3.357-7.5-7.5s3.357-7.5,7.5-7.5h15c4.143,0,7.5,3.357,7.5,7.5
		S145.643,441,141.5,441z"/>
	<path style="fill:#4CCC76;" d="M337.5,394h-15c-4.143,0-7.5-3.357-7.5-7.5s3.357-7.5,7.5-7.5h15c4.143,0,7.5,3.357,7.5,7.5
		S341.643,394,337.5,394z"/>
	<path style="fill:#4CCC76;" d="M203.5,408h-15c-4.143,0-7.5-3.357-7.5-7.5s3.357-7.5,7.5-7.5h15c4.143,0,7.5,3.357,7.5,7.5
		S207.643,408,203.5,408z"/>
	<path style="fill:#4CCC76;" d="M107.5,392h-15c-4.143,0-7.5-3.357-7.5-7.5s3.357-7.5,7.5-7.5h15c4.143,0,7.5,3.357,7.5,7.5
		S111.643,392,107.5,392z"/>
	<path style="fill:#4CCC76;" d="M235,479h-15c-4.143,0-7.5-3.357-7.5-7.5s3.357-7.5,7.5-7.5h15c4.143,0,7.5,3.357,7.5,7.5
		S239.143,479,235,479z"/>
	<path style="fill:#4CCC76;" d="M289.5,431h-15c-4.143,0-7.5-3.357-7.5-7.5s3.357-7.5,7.5-7.5h15c4.143,0,7.5,3.357,7.5,7.5
		S293.643,431,289.5,431z"/>
</g>
<path style="fill:#183889;" d="M27.611,355.83L112.781,25h286.436l85.171,330.83c6.031-15.495,10.521-31.757,13.305-48.597
	L422.26,14.226C420.138,5.982,412.42,0,403.908,0H108.092C99.58,0,91.862,5.982,89.74,14.226L14.307,307.233
	C17.09,324.073,21.581,340.335,27.611,355.83z"/>
<path style="fill:#1A2B63;" d="M100.047,14.226C102.169,5.982,109.887,0,118.398,0h-10.307C99.58,0,91.862,5.982,89.74,14.226
	L14.307,307.233c1.472,8.906,3.436,17.646,5.838,26.2L100.047,14.226z"/>
<g>
</g>
<g>
</g>
<g>
</g>
<g>
</g>
<g>
</g>
<g>
</g>
<g>
</g>
<g>
</g>
<g>
</g>
<g>
</g>
<g>
</g>
<g>
</g>
<g>
</g>
<g>
</g>
<g>
</g>
</svg>
